<?xml version="1.0" standalone="no"?><!DOCTYPE svg PUBLIC "-//W3C//DTD SVG 1.1//EN" "http://www.w3.org/Graphics/SVG/1.1/DTD/svg11.dtd"><svg t="1710061074684" class="icon" viewBox="0 0 1024 1024" version="1.1" xmlns="http://www.w3.org/2000/svg" p-id="2620" xmlns:xlink="http://www.w3.org/1999/xlink" width="200" height="200"><path d="M717.586861 713.428834 408.779862 713.428834c-14.205484 0-25.736562 11.526982-25.736562 25.732466 0 14.205484 11.531077 25.736562 25.736562 25.736562l308.806999 0c14.205484 0 25.736562-11.531077 25.736562-25.736562C743.323423 724.955816 731.792346 713.428834 717.586861 713.428834z" fill="#e6e6e6" p-id="2621"></path><path d="M717.586861 557.283181 408.779862 557.283181c-14.205484 0-25.736562 11.526982-25.736562 25.732466s11.531077 25.736562 25.736562 25.736562l308.806999 0c14.205484 0 25.736562-11.531077 25.736562-25.736562S731.792346 557.283181 717.586861 557.283181z" fill="#e6e6e6" p-id="2622"></path><path d="M337.171893 284.427095l-146.140175 0c-9.249845-1.417067-13.167257 2.499322-11.733808 11.733808l0 35.201424c-0.716725 7.832778 2.483963 11.383637 9.600016 10.666912l149.339839 0c4.967926 0 7.467248-3.549835 7.467248-10.666912l0-36.26832C346.404332 287.993313 343.572245 284.427095 337.171893 284.427095z" fill="#e6e6e6" p-id="2623"></path><path d="M691.806272 100.230884l0 0.82321c-3.294886 0-17.022213-1.372016-51.338993-0.82321L331.608061 100.230884c-30.634863 0-58.154022 13.407872-77.018217 34.665928-99.412794 5.351886-178.37743 87.650317-178.37743 188.39929 0 91.809368 65.577242 168.290042 152.443257 185.191435l0 312.415196c0 56.830129 46.122261 102.953414 102.95239 102.953414l463.150601 0c56.830129 0 102.95239-46.123285 102.95239-102.953414L897.711052 306.136688 691.806272 100.230884zM180.363782 388.965495c-9.250869 20.633481-17.783989 35.201424-25.601408 43.735568-4.983285 5.683627-9.96657 7.100694-14.934496 4.26656-4.983285-3.566218-5.698986-8.534144-2.132768-14.934496 11.367254-13.501046 19.551227-27.367622 24.534512-41.601776 2.834134-6.400352 7.467248-8.534144 13.8676-6.400352C181.780849 376.880492 183.197916 381.8648 180.363782 388.965495zM242.233509 440.167286c-6.400352 1.417067-11.383637-1.432426-14.934496-8.53312-8.53312-19.917781-14.933472-33.767974-19.201056-41.6028-2.849493-6.400352-1.432426-11.733808 4.267584-16.000368 6.400352-2.133792 11.367254 0 14.933472 6.400352 6.400352 12.100361 13.150875 27.033833 20.267952 44.802464C249.700757 432.333485 247.917137 437.31677 242.233509 440.167286zM176.097222 362.297191c-13.517429 1.432426-19.567609-4.616731-18.135184-18.13416L157.962038 284.427095c-0.715701-14.217771 6.751547-20.968294 22.401744-20.267952l58.66904 0 0-68.27008c0-7.817419 3.90103-12.083979 11.733808-12.800704 7.101718 0.716725 11.018107 4.983285 11.734832 12.800704l0 16.000368 118.404975 0c6.400352 0 10.301382 3.916389 11.734832 11.733808-0.716725 7.117077-4.267584 11.033465-10.667936 11.733808L262.501461 235.357048l0 28.802096 87.470112 0c7.817419 0 12.435174 1.066896 13.8676 3.199664 2.133792 2.133792 3.200688 7.467248 3.200688 16.001392l0 59.735936c1.417067 14.234153-4.633114 20.633481-18.13416 19.201056L176.097222 362.297191zM383.040229 438.034518c-5.700009 3.549835-11.033465 2.482939-16.000368-3.200688-10.667936-16.366921-23.117445-31.285035-37.335216-44.802464-5.700009-5.683627-6.050181-11.017083-1.066896-16.000368 4.966902-4.26656 10.300358-3.550859 16.000368 2.133792 16.351563 16.366921 29.152267 31.300393 38.402112 44.80144C387.306789 428.066925 387.306789 433.766934 383.040229 438.034518zM276.368037 375.097895c6.400352-2.834134 11.733808-0.700342 16.001392 6.400352 1.417067 2.849493 1.767238 3.566218 1.066896 2.132768 7.100694 12.800704 13.150875 25.601408 18.13416 38.402112 2.833111 7.100694 1.066896 12.43415-5.333456 16.001392-6.400352 2.833111-11.033465 0.700342-13.8676-6.400352-5.700009-13.517429-12.100361-26.668304-19.201056-39.469008C269.602156 384.347739 270.669052 378.664112 276.368037 375.097895zM846.097656 820.901709c0 28.551242-22.785704 51.338993-51.338993 51.338993L331.608061 872.240703c-28.552266 0-51.61442-22.787751-51.61442-51.338993L279.993641 511.375938c97.144872-7.692504 173.582542-88.956804 173.582542-188.079836 0-76.052686-45.002123-141.585901-109.82578-171.450798l295.892643 0c-0.54983 61.497031 0.82321 102.953414 0.82321 102.953414 0 56.830129 45.847858 102.953414 102.95239 102.953414l102.677987 0L846.096632 820.901709zM743.419669 306.136688c-28.551242 0-51.613397-23.062154-51.613397-51.338993L691.806272 151.845304l154.291383 154.292407L743.419669 306.137712z" fill="#e6e6e6" p-id="2624"></path></svg>