<?xml version="1.0" standalone="no"?><!DOCTYPE svg PUBLIC "-//W3C//DTD SVG 1.1//EN" "http://www.w3.org/Graphics/SVG/1.1/DTD/svg11.dtd"><svg t="1709640731701" class="icon" viewBox="0 0 1024 1024" version="1.1" xmlns="http://www.w3.org/2000/svg" p-id="15200" xmlns:xlink="http://www.w3.org/1999/xlink" width="200" height="200"><path d="M610.3 956.5H256.8c-4.7 0-9.2-2.1-12.2-5.7L115.5 797.7c-4.8-5.7-5-14-0.6-19.9 4.5-6 12.5-8 19.3-5 20.1 9 41 12.8 45.8 13.6h507c4.8-0.8 25.7-4.6 45.8-13.6 6.8-3 14.8-1 19.3 5s4.3 14.2-0.6 19.9l-129 153.1c-3 3.6-7.5 5.7-12.2 5.7z m-346-32h338.6l89.9-106.6c-1.3 0.2-2 0.3-2.2 0.3-0.7 0.1-1.5 0.2-2.3 0.2H178.8c-0.8 0-1.5-0.1-2.3-0.2-0.2 0-0.9-0.1-2.2-0.3l90 106.6zM127.7 690.5c-4.9 0-9.7-2.3-12.8-6.4-4.5-6-4.3-14.2 0.6-19.9l129.1-153.1c3-3.6 7.5-5.7 12.2-5.7h353.5c4.7 0 9.2 2.1 12.2 5.7l129.1 153.1c4.8 5.7 5 14 0.6 19.9-4.5 6-12.5 8-19.3 5-20.2-9-41-12.8-45.8-13.6h-507c-4.8 0.8-25.7 4.6-45.8 13.6-2.2 1-4.4 1.4-6.6 1.4z m136.6-153l-89.9 106.6c1.3-0.2 2-0.3 2.2-0.3 0.7-0.1 1.5-0.2 2.3-0.2h509.5c0.8 0 1.5 0.1 2.3 0.2 0.2 0 0.9 0.1 2.2 0.3L603 537.5H264.3z" fill="#dbdbdb" p-id="15201"></path><path d="M688.3 818.4H178.8c-0.8 0-1.5-0.1-2.3-0.2-4.5-0.6-112.4-16.8-112.4-87.2s107.9-86.6 112.4-87.2c0.7-0.1 1.5-0.2 2.3-0.2h509.5c0.8 0 1.5 0.1 2.3 0.2 4.6 0.7 112.4 16.8 112.4 87.2s-107.9 86.6-112.4 87.2c-0.7 0.1-1.5 0.2-2.3 0.2z m-508.2-32h507c9.4-1.6 84-15.8 84-55.4 0-39.8-74.5-53.8-84-55.4h-507c-9.4 1.6-84 15.8-84 55.4 0 39.8 74.5 53.8 84 55.4zM600.1 263.6c-4.3 0-8.6-1.7-11.8-5.1L436.8 94.4c-6-6.5-5.6-16.6 0.9-22.6s16.6-5.6 22.6 0.9l151.5 164.1c6 6.5 5.6 16.6-0.9 22.6-3 2.8-6.9 4.2-10.8 4.2z" fill="#dbdbdb" p-id="15202"></path><path d="M943.9 231.6h-515c-8.8 0-16 7.2-16 16s7.2 16 16 16h54.3c0.8 72.5 6.7 157.3 15 241.9h32.1C522 420.9 516 336 515.2 263.6h342.4c-2.5 230.8-58.3 587.7-70.1 660.9H644.7l-22.2 26.3c-3 3.6-7.5 5.7-12.2 5.7h190.8c7.8 0 14.5-5.6 15.8-13.4 0.7-4.3 69.9-420.1 72.7-679.5h54.3c8.8 0 16-7.2 16-16s-7.2-16-16-16z" fill="#dbdbdb" p-id="15203"></path></svg>